<svg xmlns="http://www.w3.org/2000/svg" width="256" height="256" fill="none"><g clip-path="url(#a)"><path fill="#000" fill-rule="evenodd" d="M42.67 91.84c0-6.07 0-9.11 1.2-11.42a10.67 10.67 0 0 1 4.55-4.55c2.3-1.2 5.35-1.2 11.42-1.2h25.5v42.66H42.66V91.84Zm0 46.83h42.66v42.66H59.84c-6.07 0-9.11 0-11.42-1.2a10.67 10.67 0 0 1-4.55-4.55c-1.2-2.3-1.2-5.34-1.2-11.42v-25.5Zm106.66-64h-42.66v42.66h42.66V74.67Zm-42.66 64h106.66v25.49c0 6.08 0 9.11-1.2 11.42a10.67 10.67 0 0 1-4.55 4.55c-2.3 1.2-5.34 1.2-11.42 1.2h-89.5v-42.66Zm89.49-64h-25.5v42.66h42.67V91.84c0-6.07 0-9.11-1.2-11.42a10.67 10.67 0 0 0-4.55-4.55c-2.3-1.2-5.34-1.2-11.42-1.2Z" clip-rule="evenodd"/></g><defs><clipPath id="a"><path fill="#fff" d="M0 0h256v256H0z"/></clipPath></defs></svg>